<svg xmlns="http://www.w3.org/2000/svg" xmlns:xlink="http://www.w3.org/1999/xlink" width="664" height="134.814" viewBox="0 0 664 134.814">
  <defs>
    <clipPath id="clip-path">
      <path id="Path_199" data-name="Path 199" d="M0-51.2H664V-186.016H0Z" transform="translate(0 186.016)" fill="none"/>
    </clipPath>
  </defs>
  <g id="Group_199" data-name="Group 199" transform="translate(0 186.016)">
    <path id="Path_166" data-name="Path 166" d="M892-119.326H832v-59.69h60Z" transform="translate(-229.015 -1.927)" fill="#e0253b"/>
    <g id="Group_149" data-name="Group 149" transform="translate(0 -186.016)" clip-path="url(#clip-path)">
      <g id="Group_117" data-name="Group 117" transform="translate(606.447 23.976)">
        <path id="Path_167" data-name="Path 167" d="M-13.12-3.3V-4.27h.132c.755,0,1.085-.071,1.085-.812l-.018-5.109c0-.734-.353-.812-1.085-.812h-.552v-.973h5.233V-11l-.624.018c-.847,0-.99.078-.99.794v5.868h2.106c1.031,0,1.637-.132,1.913-.646a3.575,3.575,0,0,0,.366-1.826h1.007v3.5Zm-9.7,0V-4.27h.5c.75,0,1.081-.071,1.081-.812l-.018-5.109c0-.734-.438-.812-1.176-.812h-.456v-.973h5.225V-11l-.624.018c-.84,0-.99.078-.99.794v5.868h2.113c1.026,0,1.631-.132,1.908-.646a3.515,3.515,0,0,0,.366-1.826h1.008v3.5ZM-33.1-3.3V-4.27l.51-.018c.756,0,1.176-.071,1.176-.794v-5.127c0-.716-.42-.794-1.176-.794h-.51v-.973h9.355V-8.61h-.99c-.054-2.023-.528-2.34-2.292-2.34h-2.424v2.579h.624c1.1,0,1.248-.37,1.339-1.677h1v4.4h-1.014c-.072-1.492-.217-1.7-1.3-1.7h-.641v3.022h2.79c1.578,0,1.956-.746,2.094-2.472h.99v3.5ZM-32.73-11c-.715,0-.954.275-1.249,1.069L-36.455-3.3h-1.561L-40-8.115-41.887-3.3H-43.5l-2.586-6.531c-.295-.752-.732-1.176-1.375-1.176h-.2v-.973h4.4V-11h-.427c-.492,0-.714.131-.7.406a.557.557,0,0,0,.036.275s1.008,2.382,1.805,4.734a1.014,1.014,0,0,0,.12.012l1.728-4.339C-40.765-10.632-41-11-41.755-11h-.588v-.973H-37.7V-11h-.732c-.438,0-.606.1-.606.353a.94.94,0,0,0,.072.364s1.044,2.525,1.806,4.722c.1,0,.1.005.1.005l1.674-4.393a1.749,1.749,0,0,0,.109-.663c0-.275-.24-.388-.732-.388h-.606v-.973H-32.4V-11Z" transform="translate(47.665 11.976)" fill="#ffb53a"/>
      </g>
      <g id="Group_118" data-name="Group 118" transform="translate(650.236 23.773)">
        <path id="Path_168" data-name="Path 168" d="M-3.114-2.41c0,1.988-1.56,2.7-3.869,2.7A5.355,5.355,0,0,1-10.008-.774L-10.3.133h-.881V-3.359h1.007A2.8,2.8,0,0,0-7.194-.9c1.368.059,2.34-.306,2.449-1.255.126-1.1-1.081-1.026-2.088-1.212L-8.322-3.64c-2.22-.388-2.934-1.033-2.987-2.483-.059-1.582,1.373-2.614,3.3-2.632a4.888,4.888,0,0,1,3.083.9l.438-.717h.768v3.033h-.972C-4.9-7.221-6.558-7.734-7.972-7.7-9-7.664-9.678-7.072-9.678-6.373c0,.65.642.733,1.459.876l1.817.317c1.855.309,3.289.692,3.289,2.751Z" transform="translate(11.311 8.755)" fill="#ffb53a"/>
      </g>
      <g id="Group_119" data-name="Group 119" transform="translate(608.973 36.995)">
        <path id="Path_169" data-name="Path 169" d="M-3-1.274a3.879,3.879,0,0,0-.348-1.738c-.294-.513-.894-.591-1.926-.591H-7.444v2.6h.684c1.1,0,1.266-.2,1.266-1.546h.8v4.34l-.823-.018C-5.53.319-5.68.021-6.76.021h-.684V2.284c0,.723.115.793.865.793h1.007v.974h-5.341V3.076l.5-.017c.75,0,1.008-.071,1.008-.794V-2.862c0-.716-.258-.794-1.008-.794h-.5v-.973h8.9v3.355Z" transform="translate(10.913 4.629)" fill="#ffb53a"/>
      </g>
      <g id="Group_120" data-name="Group 120" transform="translate(616.342 36.994)">
        <path id="Path_170" data-name="Path 170" d="M-2.154-3.3v-.974h.936c.5,0,.739-.054.739-.351A1.209,1.209,0,0,0-.612-5.04L-.978-6.054H-4.356l-.438,1.086a1.046,1.046,0,0,0-.109.406c0,.275.235.292.7.292h.9V-3.3H-7.824v-.974h.4c.678,0,.883-.238,1.141-.847l2.9-6.859h2.123L1.506-5.118c.252.663.534.847,1.026.847h.42V-3.3Zm-.474-7.116-1.3,3.33h2.621Z" transform="translate(7.824 11.977)" fill="#ffb53a"/>
      </g>
      <g id="Group_121" data-name="Group 121" transform="translate(626.536 36.994)">
        <path id="Path_171" data-name="Path 171" d="M-3.938-2.528C-3.938-.947-4.67-.32-5.714-.32c-1.193,0-1.967-.328-2.021-1.528l-.036-1.01c-.054-1.455-.517-1.748-2.017-1.748h-.882v2.334c0,.723.109.794.864.794h.786V-.5h-5.286v-.974h.768c.5,0,.906-.179.906-.812V-7.416c0-.717-.113-.794-.863-.794h-.714v-.973h5.957C-6.026-9.184-5-8.521-5-7.124-5-5.871-5.971-5.1-7.627-4.88c1.542.37,1.745.919,1.836,2.1.017.114,0,.352,0,.536.036.514.239.753.5.735.528-.036.57-.424.528-1.457h.828a3.662,3.662,0,0,1,.018.442ZM-7-6.885c0-1.01-.588-1.307-1.818-1.307H-10.67V-5.56l1.891-.018C-7.567-5.578-7-5.966-7-6.867Z" transform="translate(14.306 9.184)" fill="#ffb53a"/>
      </g>
      <g id="Group_122" data-name="Group 122" transform="translate(637.265 36.821)">
        <path id="Path_172" data-name="Path 172" d="M-2.794-1.122a2.537,2.537,0,0,0-2.717-1.91c-1.412,0-2.533,1.159-2.515,3.367,0,2.245.9,3.457,2.515,3.474,1.176,0,2.219-.585,2.219-1.583V1.749c0-.584-.144-.584-.971-.584H-4.7v-1H-.67v1H-1c-.623,0-.719-.06-.719.68V4.752h-.709l-.456-.722a4.882,4.882,0,0,1-2.941.919A4.091,4.091,0,0,1-8.83,3.719,4.646,4.646,0,0,1-10.15.334a4.4,4.4,0,0,1,1.3-3.271,4.313,4.313,0,0,1,3.067-1.14,3.877,3.877,0,0,1,2.747.938l.444-.9H-1.9v2.913Z" transform="translate(10.151 4.078)" fill="#ffb53a"/>
      </g>
      <g id="Group_123" data-name="Group 123" transform="translate(647.436 36.798)">
        <path id="Path_173" data-name="Path 173" d="M-1.941-3.432c-2.879,0-5.112-1.8-5.112-4.537s2.232-4.5,5.093-4.5,5.054,1.779,5.054,4.519c0,2.716-2.178,4.519-5.036,4.519m2.912-4.5c0-2.28-1.242-3.469-2.948-3.469-1.686,0-2.969,1.189-2.969,3.469s1.284,3.493,2.969,3.493S.953-5.659.953-7.933Z" transform="translate(7.053 12.47)" fill="#ffb53a"/>
      </g>
      <g id="Group_124" data-name="Group 124" transform="translate(548.201 21.345)">
        <path id="Path_174" data-name="Path 174" d="M-9.521-9.739c-1.488,1.028-2.889,2.018-4.322,2.958a.857.857,0,0,1-.783-.085,17.883,17.883,0,0,1-3.111-2.562c-2.126-2.584-4.1-5.3-6.1-7.995a1.288,1.288,0,0,0-1.212-.654c-1.152.048-2.308.014-3.553.014v9.981h-5.992V-35.313a5.718,5.718,0,0,1,.575-.059c4.106.007,8.213-.055,12.314.066a15.25,15.25,0,0,1,4.473.834c6.322,2.187,6.56,10.076,2.542,13.5a36.52,36.52,0,0,1-3.271,2.233,29.615,29.615,0,0,0,8.437,9M-28.589-23.751c2.564,0,5.083.073,7.592-.049A3.564,3.564,0,0,0-19.01-24.83a2.73,2.73,0,0,0-.8-4.557,6.535,6.535,0,0,0-2.218-.445c-1.522-.066-3.049-.02-4.574-.02h-1.987Z" transform="translate(34.591 35.382)" fill="#0c004f"/>
      </g>
      <g id="Group_125" data-name="Group 125" transform="translate(523.966 21.017)">
        <path id="Path_175" data-name="Path 175" d="M-5.935-6.625c.455-1.309.867-2.49,1.315-3.78l4.8,1.376A22.072,22.072,0,0,1-2.493-2.311L2.124,3.518c-1.624,0-3.088-.1-4.534.029A2.7,2.7,0,0,1-5.3,2.157a4.715,4.715,0,0,0-.56-.652c-.251.17-.485.329-.72.486a11.249,11.249,0,0,1-9.9,1.4C-20.039,2.324-21.94-.915-21.5-4.781a8.094,8.094,0,0,1,2.986-5.473c.565-.475,1.171-.9,1.8-1.377-.43-.637-.887-1.249-1.278-1.9-2.3-3.845-.986-8.446,2.927-9.9a11.7,11.7,0,0,1,3.938-.634,12.307,12.307,0,0,1,7.572,2.923l-2.484,4.334a33.062,33.062,0,0,0-3.3-1.837,6.408,6.408,0,0,0-2.6-.494c-1.534.038-2.229,1.243-1.663,2.7a4.864,4.864,0,0,0,.731,1.232q3.273,4.131,6.578,8.237c.063.079.145.143.354.346m-7.641-1.266A19.447,19.447,0,0,0-15.6-5.939a2.969,2.969,0,0,0,.21,3.953C-13.91-.663-10.454-.958-9.16-2.54l-4.416-5.351" transform="translate(21.56 24.068)" fill="#0c004f"/>
      </g>
      <g id="Group_126" data-name="Group 126" transform="translate(500.072 21.261)">
        <path id="Path_176" data-name="Path 176" d="M-6.26-10.375h-6.015v-.905c0-3.087.016-6.173-.017-9.259a2.673,2.673,0,0,0-.388-1.334q-4.756-7.5-9.56-14.969c-.152-.238-.288-.486-.5-.844,2.43,0,4.734-.017,7.037.028.217,0,.478.363.631.613q2.724,4.479,5.42,8.976c.137.227.282.449.482.767.207-.321.378-.575.538-.836,1.837-3,3.667-6.014,5.52-9.008a1.077,1.077,0,0,1,.685-.52c2.205-.039,4.412-.023,6.767-.023-.218.359-.37.623-.534.878q-4.82,7.459-9.627,14.925a2.8,2.8,0,0,0-.415,1.4c-.038,3.059-.02,6.118-.021,9.178v.929" transform="translate(22.741 37.693)" fill="#0c004f"/>
      </g>
      <g id="Group_127" data-name="Group 127" transform="translate(536.671 105.087)">
        <path id="Path_177" data-name="Path 177" d="M-48.36-7.707-59.555-28h-8.013l-11.2,20.293H-71.7l1.718-3.574H-57.5l1.8,3.574ZM-59.544-15.72h-8.092l3.952-7.414ZM-86.519-7.707h6.268V-28h-6.268Zm-1.292,0-12.813-10.828L-89.128-28h-8.366l-10.974,9.587L-96.677-7.707Zm-27.145,0h6.268V-28h-6.268Zm-2.4-5.061V-22.939A5.076,5.076,0,0,0-122.421-28h-16.9a5.076,5.076,0,0,0-5.061,5.061v10.171a5.076,5.076,0,0,0,5.061,5.061h16.9a5.076,5.076,0,0,0,5.062-5.061m-5.854.146H-138.53V-23.086h15.317Zm-34.061,4.914h10.61V-28h-6.269v14.933L-164.864-28h-10.824V-7.707h6.268v-15.2Z" transform="translate(175.688 28)" fill="#039"/>
      </g>
      <g id="Group_128" data-name="Group 128" transform="translate(94.369 43.277)">
        <path id="Path_178" data-name="Path 178" d="M-19.906-1.783c-6.348,4.641-15.552,7.108-23.477,7.108A42.716,42.716,0,0,1-72.06-5.511c-.594-.532-.065-1.257.65-.846A58.149,58.149,0,0,0-42.715,1.184,57.556,57.556,0,0,0-20.828-3.252c1.073-.451,1.973.7.923,1.469" transform="translate(72.316 6.478)" fill="#f90"/>
      </g>
      <g id="Group_129" data-name="Group 129" transform="translate(141.482 42.145)">
        <path id="Path_179" data-name="Path 179" d="M-3.015-1.078c-.812-1.03-5.367-.488-7.413-.245-.62.074-.716-.463-.157-.852C-6.952-4.7-1-3.973-.306-3.126S-.49,3.64-3.894,6.462c-.524.434-1.023.2-.79-.37C-3.918,4.2-2.2-.048-3.015-1.078" transform="translate(10.954 3.917)" fill="#f90"/>
      </g>
      <g id="Group_130" data-name="Group 130" transform="translate(141.517 22.949)">
        <path id="Path_180" data-name="Path 180" d="M-.241-1.17V-3.626a.609.609,0,0,1,.629-.622H11.5a.616.616,0,0,1,.641.62v2.107A3.45,3.45,0,0,1,11.307.024L5.55,8.167a12.429,12.429,0,0,1,6.339,1.349,1.12,1.12,0,0,1,.59.958V13.1a.593.593,0,0,1-.819.561,12.91,12.91,0,0,0-11.744.022c-.387.2-.791-.208-.791-.57V10.618A2.943,2.943,0,0,1-.461,8.929L6.209-.551H.4A.615.615,0,0,1-.241-1.17" transform="translate(0.875 4.249)"/>
      </g>
      <g id="Group_131" data-name="Group 131" transform="translate(97.619 22.633)">
        <path id="Path_181" data-name="Path 181" d="M-1.514-7.117H-4.9A.636.636,0,0,1-5.5-7.684l0-17.191a.634.634,0,0,1,.653-.618H-1.7a.634.634,0,0,1,.615.578v2.244h.063a4.459,4.459,0,0,1,4.451-3.184c2.115,0,3.441,1.013,4.388,3.184a4.8,4.8,0,0,1,4.672-3.184,4.815,4.815,0,0,1,3.914,1.881c1.073,1.447.853,3.545.853,5.39l0,10.849a.635.635,0,0,1-.652.618H13.226a.631.631,0,0,1-.607-.617v-9.114a21.779,21.779,0,0,0-.095-3.219,1.76,1.76,0,0,0-1.988-1.484,2.243,2.243,0,0,0-2.021,1.41A10.311,10.311,0,0,0,8.2-16.848v9.113a.635.635,0,0,1-.652.618H4.169a.631.631,0,0,1-.607-.617l0-9.114c0-1.918.315-4.738-2.083-4.738-2.431,0-2.336,2.748-2.336,4.738v9.113a.635.635,0,0,1-.652.618" transform="translate(5.501 25.856)"/>
      </g>
      <g id="Group_132" data-name="Group 132" transform="translate(156.497 22.633)">
        <path id="Path_182" data-name="Path 182" d="M-2.889,0C2.129,0,4.844,4.269,4.844,9.7c0,5.245-3,9.406-7.733,9.406-4.925,0-7.608-4.269-7.608-9.587C-10.5,4.16-7.782,0-2.889,0m.03,3.51c-2.493,0-2.65,3.363-2.65,5.462s-.031,6.584,2.62,6.584c2.621,0,2.746-3.617,2.746-5.823A15.76,15.76,0,0,0-.648,5.173,2.115,2.115,0,0,0-2.859,3.51" transform="translate(10.497)"/>
      </g>
      <g id="Group_133" data-name="Group 133" transform="translate(174.366 22.633)">
        <path id="Path_183" data-name="Path 183" d="M-1.512-7.117H-4.882a.632.632,0,0,1-.607-.617l-.006-17.2a.639.639,0,0,1,.65-.561h3.136a.642.642,0,0,1,.6.481v2.629h.063c.948-2.352,2.273-3.473,4.609-3.473A4.446,4.446,0,0,1,7.511-23.83c.883,1.374.883,3.689.883,5.354V-7.658a.64.64,0,0,1-.648.541H4.357a.634.634,0,0,1-.6-.541v-9.335c0-1.881.221-4.631-2.115-4.631A2.213,2.213,0,0,0-.317-20.249a7.58,7.58,0,0,0-.537,3.256v9.257a.644.644,0,0,1-.658.618" transform="translate(5.494 25.856)"/>
      </g>
      <g id="Group_134" data-name="Group 134" transform="translate(123.326 22.467)">
        <path id="Path_184" data-name="Path 184" d="M-5.587-4.8v-5.217c0-2.212.159-4.243-1.487-5.765a7.713,7.713,0,0,0-5.093-1.668c-3.218,0-6.808,1.189-7.562,5.128a.591.591,0,0,0,.5.7l3.278.352a.711.711,0,0,0,.587-.617A2.572,2.572,0,0,1-12.641-13.9a2.269,2.269,0,0,1,1.9.87,4.251,4.251,0,0,1,.412,2.429v.435c-1.962.218-4.525.363-6.359,1.161A5.689,5.689,0,0,0-20.3-3.533c0,3.479,2.215,5.22,5.061,5.22A6.731,6.731,0,0,0-9.66-.747,8.187,8.187,0,0,0-7.721,1.485a.7.7,0,0,0,.8-.078l.009.007c.675-.6,1.9-1.651,2.593-2.224A.628.628,0,0,0-4.31-1.7,4.553,4.553,0,0,1-5.587-4.8M-10.331-6.76a6.516,6.516,0,0,1-.633,3.553,2.75,2.75,0,0,1-2.341,1.523c-1.3,0-2.056-.979-2.056-2.429,0-2.853,2.584-3.372,5.03-3.372Z" transform="translate(20.296 17.455)"/>
      </g>
      <g id="Group_135" data-name="Group 135" transform="translate(78.997 22.467)">
        <path id="Path_185" data-name="Path 185" d="M-5.587-4.8v-5.217c0-2.212.157-4.243-1.486-5.765a7.717,7.717,0,0,0-5.093-1.668c-3.219,0-6.809,1.189-7.562,5.128a.59.59,0,0,0,.5.7l3.277.352a.712.712,0,0,0,.588-.617A2.571,2.571,0,0,1-12.642-13.9a2.268,2.268,0,0,1,1.9.87,4.25,4.25,0,0,1,.411,2.429v.435c-1.96.218-4.523.363-6.358,1.161A5.689,5.689,0,0,0-20.3-3.533c0,3.479,2.215,5.22,5.062,5.22A6.733,6.733,0,0,0-9.66-.747,8.17,8.17,0,0,0-7.722,1.485a.7.7,0,0,0,.8-.078l.008.007c.675-.6,1.9-1.651,2.594-2.224a.628.628,0,0,0,.01-.891A4.552,4.552,0,0,1-5.587-4.8M-10.333-6.76a6.516,6.516,0,0,1-.633,3.553,2.748,2.748,0,0,1-2.341,1.523c-1.3,0-2.056-.979-2.056-2.429,0-2.853,2.584-3.372,5.03-3.372Z" transform="translate(20.297 17.455)"/>
      </g>
      <g id="Group_136" data-name="Group 136" transform="translate(218.872 17.393)">
        <path id="Path_186" data-name="Path 186" d="M0,0H15.583q0,7.791,0,15.583H0Z" fill="#f24f21"/>
      </g>
      <g id="Group_137" data-name="Group 137" transform="translate(236.046 17.393)">
        <path id="Path_187" data-name="Path 187" d="M0,0H15.583q0,7.791,0,15.583H0Q0,7.792,0,0" transform="translate(0)" fill="#7fba00"/>
      </g>
      <g id="Group_138" data-name="Group 138" transform="translate(285.529 23.504)">
        <path id="Path_188" data-name="Path 188" d="M-.65-.009A2.06,2.06,0,0,1,1.216.652,1.922,1.922,0,0,1,1.45,2.841a2.1,2.1,0,0,1-2.244.94A1.906,1.906,0,0,1-2.359,1.9,1.951,1.951,0,0,1-.65-.009" transform="translate(2.36 0.033)" fill="#777"/>
      </g>
      <g id="Group_139" data-name="Group 139" transform="translate(261.409 23.943)">
        <path id="Path_189" data-name="Path 189" d="M0,0H4.9Q7.189,5.81,9.491,11.617c.391.969.755,1.949,1.165,2.91,1.963-4.841,3.953-9.669,5.9-14.516C18.128-.014,19.7.005,21.272,0q-.005,9.825,0,19.651c-1.134,0-2.268.009-3.4-.007.012-4.834,0-9.668.006-14.5q0-.326-.021-.652a2.627,2.627,0,0,0-.177.315c-1.947,4.948-3.932,9.883-5.869,14.835-.807.029-1.615,0-2.422.014C7.377,14.709,5.393,9.749,3.394,4.8c-.052-.1-.109-.2-.17-.3-.041,2.118-.007,4.238-.017,6.356q0,4.4,0,8.8c-1.07,0-2.139,0-3.208,0Q0,9.827,0,0" transform="translate(0.002 0.002)" fill="#777"/>
      </g>
      <g id="Group_140" data-name="Group 140" transform="translate(291.431 29.161)">
        <path id="Path_190" data-name="Path 190" d="M-1.93-.129a9.229,9.229,0,0,1,5.007.015,4.041,4.041,0,0,1,.961.4c-.019,1.074,0,2.148-.01,3.223A5.351,5.351,0,0,0,.18,2.328a3.957,3.957,0,0,0-2.8,1.555,5.432,5.432,0,0,0-.893,3.9,4.219,4.219,0,0,0,1.362,2.8A4.264,4.264,0,0,0,1,11.523a6.431,6.431,0,0,0,3.024-1.241c.009,1.018-.005,2.035.007,3.053a8.192,8.192,0,0,1-4.606.953,6.826,6.826,0,0,1-4.39-1.831A7.018,7.018,0,0,1-7,7.741,8.535,8.535,0,0,1-5.669,2.512,6.779,6.779,0,0,1-1.93-.129" transform="translate(7.013 0.467)" fill="#777"/>
      </g>
      <g id="Group_141" data-name="Group 141" transform="translate(329.357 29.164)">
        <path id="Path_191" data-name="Path 191" d="M-1.509-.046A8.917,8.917,0,0,1,3.156.439c0,1.033,0,2.066,0,3.1A5.941,5.941,0,0,0-.382,2.492a1.814,1.814,0,0,0-1.61.89A1.457,1.457,0,0,0-1.5,5.106c.956.639,2.1.911,3.086,1.484A4.436,4.436,0,0,1,3.512,8.426a4.109,4.109,0,0,1-.877,4.742,6.446,6.446,0,0,1-4.69,1.425,10.033,10.033,0,0,1-3.427-.786c.005-1.086-.007-2.172.006-3.258a7.376,7.376,0,0,0,3.058,1.32,3.937,3.937,0,0,0,2.326-.214A1.345,1.345,0,0,0,.31,9.74a4.052,4.052,0,0,0-1.471-.963A14.067,14.067,0,0,1-4.069,7.288,3.48,3.48,0,0,1-5.328,5.376a4.3,4.3,0,0,1,.466-3.362A5.018,5.018,0,0,1-1.509-.046" transform="translate(5.481 0.168)" fill="#777"/>
      </g>
      <g id="Group_142" data-name="Group 142" transform="translate(304.952 29.249)">
        <path id="Path_192" data-name="Path 192" d="M-1.924-.182A3.8,3.8,0,0,1,1.2-.446C1.2.678,1.2,1.8,1.2,2.926a3.581,3.581,0,0,0-2.278-.536A2.8,2.8,0,0,0-3.185,4.076a6.241,6.241,0,0,0-.48,2.876q0,3.368,0,6.736H-6.987q0-7.04,0-14.08C-5.881-.4-4.772-.4-3.663-.394c-.005.806,0,1.612,0,2.418A4.316,4.316,0,0,1-1.924-.182" transform="translate(6.99 0.662)" fill="#777"/>
      </g>
      <g id="Group_143" data-name="Group 143" transform="translate(285.836 29.511)">
        <path id="Path_193" data-name="Path 193" d="M0,0c1.118,0,2.236-.016,3.353.006-.013,4.692,0,9.385-.006,14.076H0Q0,7.039,0,0" transform="translate(0 0.01)" fill="#777"/>
      </g>
      <g id="Group_144" data-name="Group 144" transform="translate(313.332 29.16)">
        <path id="Path_194" data-name="Path 194" d="M-5.235-1.383A5.96,5.96,0,0,0-8.179-4.358,8.944,8.944,0,0,0-13-4.928a6.725,6.725,0,0,0-4.43,2.368,7.5,7.5,0,0,0-1.555,4.3,8.083,8.083,0,0,0,1.234,5.261,6.383,6.383,0,0,0,3.893,2.539,9.69,9.69,0,0,0,3.946,0A6.524,6.524,0,0,0-6.047,7.161a7.472,7.472,0,0,0,1.482-4.1,9.243,9.243,0,0,0-.67-4.443M-8.49,5.082a3.078,3.078,0,0,1-1.656,1.626,4.542,4.542,0,0,1-2.747.121,3.365,3.365,0,0,1-2.113-1.743,6.5,6.5,0,0,1-.512-3.525,4.476,4.476,0,0,1,1.3-2.939A3.523,3.523,0,0,1-12-2.253,3.63,3.63,0,0,1-9.179-1.3,4.547,4.547,0,0,1-8.016,1.64,7.384,7.384,0,0,1-8.49,5.082" transform="translate(19.02 5.025)" fill="#777"/>
      </g>
      <g id="Group_145" data-name="Group 145" transform="translate(340.16 29.16)">
        <path id="Path_195" data-name="Path 195" d="M-5.3-1.538A6.014,6.014,0,0,0-8.192-4.814a8.732,8.732,0,0,0-5-.68,6.975,6.975,0,0,0-3.724,1.6A6.9,6.9,0,0,0-19.141.43a9.329,9.329,0,0,0,.529,4.893,6.247,6.247,0,0,0,3.424,3.321,9.059,9.059,0,0,0,4.747.4A6.581,6.581,0,0,0-6.3,6.624a7.7,7.7,0,0,0,1.525-4.8A8.985,8.985,0,0,0-5.3-1.538m-3.04,4.775A4.395,4.395,0,0,1-9.209,5.3a3.151,3.151,0,0,1-1.969,1.06A4.454,4.454,0,0,1-13.589,6.1a3.42,3.42,0,0,1-1.777-1.86,6.692,6.692,0,0,1-.4-3.069,4.869,4.869,0,0,1,1.021-2.8,3.449,3.449,0,0,1,2.459-1.181,3.7,3.7,0,0,1,2.7.8A3.871,3.871,0,0,1-8.365.228a8.57,8.57,0,0,1,.028,3.01" transform="translate(19.245 5.586)" fill="#777"/>
      </g>
      <g id="Group_146" data-name="Group 146" transform="translate(354.928 22.495)">
        <path id="Path_196" data-name="Path 196" d="M-6.587-3.7V-6.442c-1.112,0-2.224-.009-3.335.007-.025-1.407,0-2.813-.012-4.219-1.112.335-2.217.691-3.335,1.01-.028,1.067,0,2.135-.014,3.2-1.643,0-3.287,0-4.93,0a21.227,21.227,0,0,1,.063-2.523,1.969,1.969,0,0,1,1.124-1.573,3.215,3.215,0,0,1,2.484.228c0-.963.007-1.926-.007-2.888a6.115,6.115,0,0,0-4.912.576,4.6,4.6,0,0,0-1.9,2.595,14.351,14.351,0,0,0-.232,3.592c-.78-.005-1.559-.013-2.337.005.009.9.005,1.8,0,2.7.781.016,1.564,0,2.345.012q-.01,5.683,0,11.365h3.37q0-5.685,0-11.369,2.466,0,4.933,0c0,2.416-.005,4.83,0,7.245a5.032,5.032,0,0,0,.952,3.216A3.745,3.745,0,0,0-9.668,7.955a6.583,6.583,0,0,0,3.081-.472V4.719A2.511,2.511,0,0,1-9.15,4.96a1.7,1.7,0,0,1-.728-1.344c-.1-.868-.037-1.744-.055-2.616,0-1.574,0-3.148,0-4.721,1.115,0,2.232-.03,3.348.016" transform="translate(23.93 13.46)" fill="#777"/>
      </g>
      <g id="Group_147" data-name="Group 147" transform="translate(218.872 34.567)">
        <path id="Path_197" data-name="Path 197" d="M0,0Q7.791,0,15.583,0q0,7.791,0,15.582H0Z" fill="#02a3ef"/>
      </g>
      <g id="Group_148" data-name="Group 148" transform="translate(236.046 34.568)">
        <path id="Path_198" data-name="Path 198" d="M0,0Q7.79,0,15.582,0V15.582H0Q0,7.79,0,0" transform="translate(0.001 0.002)" fill="#ffba02"/>
      </g>
    </g>
    <g id="Group_150" data-name="Group 150" transform="translate(292.678 -91.798)">
      <path id="Path_200" data-name="Path 200" d="M-6-1h-15.8l.974-2.628H-6Z" transform="translate(21.806 3.626)" fill="#3e88c9"/>
    </g>
    <g id="Group_153" data-name="Group 153" transform="translate(0 -186.016)" clip-path="url(#clip-path)">
      <g id="Group_151" data-name="Group 151" transform="translate(266.351 94.216)">
        <path id="Path_201" data-name="Path 201" d="M0,0H14.673l.961,2.634c.007,0-15.629,0-15.629,0S0,0,0,0" transform="translate(0.002 0.002)" fill="#3e88c9"/>
      </g>
      <g id="Group_152" data-name="Group 152" transform="translate(234.414 94.217)">
        <path id="Path_202" data-name="Path 202" d="M-7.7,0A10.743,10.743,0,0,1-1.392,2.632s-26.6,0-26.6,0V0Z" transform="translate(27.989 0.001)" fill="#3e88c9"/>
      </g>
    </g>
    <path id="Path_204" data-name="Path 204" d="M294.647-56.015h18.477v2.627H294.647Z" transform="translate(-81.104 -35.784)" fill="#3e88c9"/>
    <g id="Group_155" data-name="Group 155" transform="translate(0 -186.016)" clip-path="url(#clip-path)">
      <g id="Group_154" data-name="Group 154" transform="translate(290.867 99.161)">
        <path id="Path_205" data-name="Path 205" d="M-6.69-.993H-24.305s.96-2.613.955-2.614H-6.69Z" transform="translate(24.305 3.607)" fill="#3e88c9"/>
      </g>
    </g>
    <g id="Group_156" data-name="Group 156" transform="translate(266.351 -86.856)">
      <path id="Path_207" data-name="Path 207" d="M-6.628-.995h-17.45V-3.613h16.5Z" transform="translate(24.078 3.613)" fill="#3e88c9"/>
    </g>
    <g id="Group_158" data-name="Group 158" transform="translate(0 -186.016)" clip-path="url(#clip-path)">
      <g id="Group_157" data-name="Group 157" transform="translate(234.419 99.159)">
        <path id="Path_208" data-name="Path 208" d="M-10.886,0a6.6,6.6,0,0,1,.765,2.615H-39.549V0Z" transform="translate(39.549)" fill="#3e88c9"/>
      </g>
    </g>
    <path id="Path_210" data-name="Path 210" d="M294.647-49.2h18.477v2.615H294.647Z" transform="translate(-81.104 -37.661)" fill="#3e88c9"/>
    <g id="Group_159" data-name="Group 159" transform="translate(289.066 -81.925)">
      <path id="Path_211" data-name="Path 211" d="M0-1,.968-3.624l13.225,0V-1Z" transform="translate(0 3.624)" fill="#3e88c9"/>
    </g>
    <g id="Group_160" data-name="Group 160" transform="translate(271.554 -81.927)">
      <path id="Path_212" data-name="Path 212" d="M-4.974,0l.963,2.628H-18.07V0Z" transform="translate(18.07)" fill="#3e88c9"/>
    </g>
    <g id="Group_162" data-name="Group 162" transform="translate(0 -186.016)" clip-path="url(#clip-path)">
      <g id="Group_161" data-name="Group 161" transform="translate(255.634 104.089)">
        <path id="Path_213" data-name="Path 213" d="M-3.208,0A8.289,8.289,0,0,1-3.6,2.628h-8.057V0Z" transform="translate(11.654)" fill="#3e88c9"/>
      </g>
    </g>
    <path id="Path_215" data-name="Path 215" d="M301.753-42.376h7.942v2.615h-7.942Z" transform="translate(-83.06 -39.538)" fill="#3e88c9"/>
    <path id="Path_216" data-name="Path 216" d="M330.828-42.394h7.928v2.628h-7.928Z" transform="translate(-91.063 -39.533)" fill="#3e88c9"/>
    <g id="Group_165" data-name="Group 165" transform="translate(0 -186.016)" clip-path="url(#clip-path)">
      <g id="Group_163" data-name="Group 163" transform="translate(271.554 108.931)">
        <path id="Path_217" data-name="Path 217" d="M-2.966-.236s0,1.989,0,1.993h-7.81V-.859H4.108l.924,2.438s.891-2.444.893-2.438h15V1.757H13.152s-.005-1.992-.005-1.992L12.43,1.757l-14.677,0Z" transform="translate(10.775 0.859)" fill="#3e88c9"/>
      </g>
      <g id="Group_164" data-name="Group 164" transform="translate(239.764 108.929)">
        <path id="Path_218" data-name="Path 218" d="M0,0H22.757V0A9.956,9.956,0,0,1,20.5,2.615s-20.5,0-20.5,0S0,0,0,0" transform="translate(0.001 0.003)" fill="#3e88c9"/>
      </g>
    </g>
    <path id="Path_220" data-name="Path 220" d="M301.753-35.713h7.942V-33.1h-7.942Z" transform="translate(-83.06 -41.372)" fill="#3e88c9"/>
    <path id="Path_221" data-name="Path 221" d="M407.707-28.91h7.771V-26.3h-7.771Z" transform="translate(-112.225 -43.245)" fill="#3e88c9"/>
    <g id="Group_170" data-name="Group 170" transform="translate(0 -186.016)" clip-path="url(#clip-path)">
      <g id="Group_166" data-name="Group 166" transform="translate(271.554 113.862)">
        <path id="Path_222" data-name="Path 222" d="M-2.966,0h-7.809V2.614s7.812,0,7.812,0S-2.955,0-2.966,0" transform="translate(10.775)" fill="#3e88c9"/>
      </g>
      <g id="Group_167" data-name="Group 167" transform="translate(280.921 113.862)">
        <path id="Path_223" data-name="Path 223" d="M-4.934,0c-.036-.005-.91,2.613-.947,2.614l-11.07.005c-.009,0-.973-2.624-.974-2.619Z" transform="translate(17.925 0)" fill="#3e88c9"/>
      </g>
      <g id="Group_168" data-name="Group 168" transform="translate(239.763 113.861)">
        <path id="Path_224" data-name="Path 224" d="M0,0H20.463A13.1,13.1,0,0,1,22.9,2.615c.038,0-22.9,0-22.9,0S0,0,0,0" fill="#3e88c9"/>
      </g>
      <g id="Group_169" data-name="Group 169" transform="translate(218.705 113.861)">
        <path id="Path_225" data-name="Path 225" d="M-3.011-.993V-3.608h-7.928s0,2.614,0,2.614h7.928" transform="translate(10.939 3.608)" fill="#3e88c9"/>
      </g>
    </g>
    <path id="Path_227" data-name="Path 227" d="M407.707-22.107h7.771v2.616h-7.771Z" transform="translate(-112.225 -45.117)" fill="#3e88c9"/>
    <path id="Path_228" data-name="Path 228" d="M374.691-22.107H382.5v2.614h-7.809Z" transform="translate(-103.137 -45.117)" fill="#3e88c9"/>
    <g id="Group_174" data-name="Group 174" transform="translate(0 -186.016)" clip-path="url(#clip-path)">
      <g id="Group_171" data-name="Group 171" transform="translate(282.71 118.791)">
        <path id="Path_229" data-name="Path 229" d="M-3.2-1c0-.012.958-2.631.973-2.628h-9.411c-.017,0,.965,2.616.965,2.616S-3.207-.988-3.2-1" transform="translate(11.642 3.626)" fill="#3e88c9"/>
      </g>
      <g id="Group_172" data-name="Group 172" transform="translate(239.764 118.791)">
        <path id="Path_230" data-name="Path 230" d="M0-.993c0,.01,0-2.614,0-2.615H8.046s.007,2.616,0,2.616S0-1,0-.993" transform="translate(0 3.608)" fill="#3e88c9"/>
      </g>
      <g id="Group_173" data-name="Group 173" transform="translate(255.776 118.791)">
        <path id="Path_231" data-name="Path 231" d="M-3.045,0A7.333,7.333,0,0,1-2.54,2.628h-8.524V0Z" transform="translate(11.064)" fill="#3e88c9"/>
      </g>
    </g>
    <path id="Path_233" data-name="Path 233" d="M301.77-22.108H309.7v2.614H301.77Z" transform="translate(-83.065 -45.117)" fill="#3e88c9"/>
    <path id="Path_234" data-name="Path 234" d="M407.707-15.446h13v2.616h-13Z" transform="translate(-112.225 -46.951)" fill="#3e88c9"/>
    <path id="Path_235" data-name="Path 235" d="M367.512-15.446h13.012v2.616H367.512Z" transform="translate(-101.161 -46.951)" fill="#3e88c9"/>
    <g id="Group_175" data-name="Group 175" transform="translate(284.477 -62.397)">
      <path id="Path_236" data-name="Path 236" d="M-1.869-.994H-5.839L-6.791-3.61H-.952Z" transform="translate(6.791 3.61)" fill="#3e88c9"/>
    </g>
    <g id="Group_178" data-name="Group 178" transform="translate(0 -186.016)" clip-path="url(#clip-path)">
      <g id="Group_176" data-name="Group 176" transform="translate(213.542 123.62)">
        <path id="Path_237" data-name="Path 237" d="M0,0V2.615H18.464c.008,0-.008-2.613,0-2.613L0,0" transform="translate(0)" fill="#3e88c9"/>
      </g>
      <g id="Group_177" data-name="Group 177" transform="translate(234.418 123.62)">
        <path id="Path_238" data-name="Path 238" d="M-11.221,0a5.5,5.5,0,0,1-1.026,2.616H-40.766V0Z" transform="translate(40.766)" fill="#3e88c9"/>
      </g>
    </g>
    <g id="Group_179" data-name="Group 179" transform="translate(286.307 -57.465)">
      <path id="Path_240" data-name="Path 240" d="M-.491-1H-.856l-.928-2.621H.461Z" transform="translate(1.784 3.616)" fill="#3e88c9"/>
    </g>
    <path id="Path_241" data-name="Path 241" d="M407.707-8.642h13v2.626h-13Z" transform="translate(-112.225 -48.824)" fill="#3e88c9"/>
    <g id="Group_181" data-name="Group 181" transform="translate(0 -186.016)" clip-path="url(#clip-path)">
      <g id="Group_180" data-name="Group 180" transform="translate(234.414 128.554)">
        <path id="Path_242" data-name="Path 242" d="M0-.994V-3.611l26.752,0a10.332,10.332,0,0,1-6.894,2.62L0-.994" transform="translate(0 3.611)" fill="#3e88c9"/>
      </g>
    </g>
    <path id="Path_244" data-name="Path 244" d="M367.512-8.642h13.012v2.626H367.512Z" transform="translate(-101.161 -48.824)" fill="#3e88c9"/>
    <g id="Group_187" data-name="Group 187" transform="translate(0 -186.016)" clip-path="url(#clip-path)">
      <g id="Group_182" data-name="Group 182" transform="translate(213.541 128.554)">
        <path id="Path_245" data-name="Path 245" d="M-7.013,0s-.009,2.61,0,2.61-18.458.01-18.464,0,.005-2.622,0-2.622S-7.022,0-7.013,0" transform="translate(25.478 0.011)" fill="#3e88c9"/>
      </g>
      <g id="Group_183" data-name="Group 183" transform="translate(404.406 -0.001)">
        <path id="Path_246" data-name="Path 246" d="M-3.836-3.821,20.077-13.883A34.063,34.063,0,1,1-13.937,20.132,34.018,34.018,0,0,1,20.077-13.883M43.966-3.753,20.073-10.2A30.335,30.335,0,0,0-10.263,20.136,30.294,30.294,0,1,0,41.483-1.271,30.166,30.166,0,0,0,20.073-10.2" transform="translate(13.937 13.883)" fill="#0087c9"/>
      </g>
      <g id="Group_184" data-name="Group 184" transform="translate(413.083 24.941)">
        <path id="Path_247" data-name="Path 247" d="M-17.511-4.529l5.076.007-.007,4.287L-22.619-.249-22.6-14.9l5.1.008ZM-34.144-5.36l-8.4,6.6L-50.2-4.813A7.4,7.4,0,0,1-57.063-.3l-6.552-.01.02-14.651,6.553.009A7.328,7.328,0,0,1-50.2-10.419l7.681-6.036,2.841,2.245L-46.71-8.679l1.344,1.063,7.035-5.531,2.84,2.245L-42.525-5.37l1.345,1.062,7.042-5.528.007-5.085,5.1.007-.013,10.365,5.075.008-.006,4.289L-34.151-.266ZM-54.395-7.624a2.926,2.926,0,0,0-3.161-3.121l-1.139,0L-58.7-4.513H-57.6a2.922,2.922,0,0,0,3.2-3.111" transform="translate(63.615 16.455)" fill="#0087c9"/>
      </g>
      <g id="Group_185" data-name="Group 185" transform="translate(30.4 105.745)">
        <path id="Path_248" data-name="Path 248" d="M-3.442-1.728c2.277,0,2.965,2.175,2.965,3.369H-6.614A3.189,3.189,0,0,1-3.442-1.728M3.1,8.333a16.042,16.042,0,0,1-2,.581,11.793,11.793,0,0,1-2.446.26c-2.694,0-4.8-.937-5.147-3.168H5a14.624,14.624,0,0,0,.236-2.557c0-5.07-2.413-9.725-8.572-9.725-5.981,0-9.166,4.9-9.166,10.4,0,6.334,4.236,9.956,10.15,9.956a16.533,16.533,0,0,0,3.516-.334,13.792,13.792,0,0,0,2.862-.936Z" transform="translate(12.503 6.276)" fill="#034596"/>
      </g>
      <g id="Group_186" data-name="Group 186" transform="translate(119.603 105.745)">
        <path id="Path_249" data-name="Path 249" d="M-3.442-1.728c2.277,0,2.965,2.175,2.965,3.369H-6.615A3.19,3.19,0,0,1-3.442-1.728M3.1,8.333a16.053,16.053,0,0,1-2,.581,11.78,11.78,0,0,1-2.445.26c-2.693,0-4.8-.937-5.146-3.168H5a14.552,14.552,0,0,0,.236-2.557c0-5.07-2.414-9.725-8.571-9.725-5.982,0-9.166,4.9-9.166,10.4,0,6.334,4.235,9.956,10.149,9.956a16.546,16.546,0,0,0,3.516-.334,13.786,13.786,0,0,0,2.861-.936Z" transform="translate(12.503 6.276)" fill="#034596"/>
      </g>
    </g>
    <path id="Path_251" data-name="Path 251" d="M70.3-22.625h6.231V-49.018H70.3Z" transform="translate(-19.351 -37.71)" fill="#034596"/>
    <g id="Group_189" data-name="Group 189" transform="translate(0 -186.016)" clip-path="url(#clip-path)">
      <g id="Group_188" data-name="Group 188" transform="translate(59.99 105.777)">
        <path id="Path_252" data-name="Path 252" d="M-3.686-5.883c-2.024,0-3.353-2.092-3.353-5.326,0-2.576.891-5.328,3.374-5.328,2.4,0,3.248,2.851,3.248,5.3,0,3.25-1.293,5.354-3.269,5.354m-.084,4.83c4.862,0,9.783-3.2,9.783-10.348,0-4.256-2.412-9.973-9.478-9.973-7.274,0-9.927,5.54-9.927,10.3,0,5.97,3.966,10.024,9.622,10.024" transform="translate(13.392 21.374)" fill="#034596"/>
      </g>
    </g>
    <path id="Path_254" data-name="Path 254" d="M113.287-20h6.231V-39.474h-6.231Z" transform="translate(-31.183 -40.337)" fill="#034596"/>
    <path id="Path_255" data-name="Path 255" d="M113.287-43.95h6.231v-5.057h-6.231Z" transform="translate(-31.183 -37.713)" fill="#034596"/>
    <g id="Group_198" data-name="Group 198" transform="translate(0 -186.016)" clip-path="url(#clip-path)">
      <g id="Group_190" data-name="Group 190" transform="translate(90.875 100.187)">
        <path id="Path_256" data-name="Path 256" d="M-.909-.273v5.3H-3.3V9.85H-.909v7.979c0,4.388,1.919,7.073,6.3,7.073A17.52,17.52,0,0,0,8,24.681a13.465,13.465,0,0,0,1.8-.38c.005-.005-.046-5.087-.046-5.106a12.9,12.9,0,0,1-2.13.321,2.343,2.343,0,0,1-1.777-.636A3.009,3.009,0,0,1,5.19,16.74V9.85H9.217V5.023H5.19V-.992Z" transform="translate(3.304 0.992)" fill="#034596"/>
      </g>
      <g id="Group_191" data-name="Group 191" transform="translate(105.29 100.187)">
        <path id="Path_257" data-name="Path 257" d="M-.909-.273v5.3H-3.3V9.85H-.909v7.979c0,4.388,1.919,7.073,6.3,7.073a17.493,17.493,0,0,0,2.6-.222,13.4,13.4,0,0,0,1.8-.38c.005-.005-.046-5.087-.046-5.106a12.867,12.867,0,0,1-2.129.321,2.343,2.343,0,0,1-1.777-.636,3.01,3.01,0,0,1-.652-2.141V9.85H9.217V5.023H5.191V-.992Z" transform="translate(3.304 0.992)" fill="#034596"/>
      </g>
      <g id="Group_192" data-name="Group 192" transform="translate(140.022 118.9)">
        <path id="Path_258" data-name="Path 258" d="M0-1.368a3.527,3.527,0,0,1,3.447-3.6,3.528,3.528,0,0,1,3.447,3.6,3.528,3.528,0,0,1-3.447,3.6A3.528,3.528,0,0,1,0-1.368" transform="translate(0 4.97)" fill="#93cc51"/>
      </g>
      <g id="Group_193" data-name="Group 193" transform="translate(6.289 98.854)">
        <path id="Path_259" data-name="Path 259" d="M0-10.2H7.051c.478,0,1.054-.012,1.507-.036,9.651-.521,13.666-6.492,13.666-13.385,0-8.611-5.556-13.435-15.145-13.435-2.46,0-4.648.088-7.079.3Zm9.014-5.258c-.259.022-.649.032-.9.032H6.14s0-16.22,0-16.22c.683-.064,1.551-.107,2.131-.107,3.622,0,7.482,2.457,7.482,8.131,0,5.92-3.627,7.895-6.74,8.163" transform="translate(0 37.056)" fill="#034596"/>
      </g>
      <g id="Group_194" data-name="Group 194" transform="translate(420.815 107.385)">
        <path id="Path_260" data-name="Path 260" d="M-16.75-6.012a.408.408,0,0,0,.429-.426V-18.921h4.273a.408.408,0,0,0,.429-.425v-1.722a.408.408,0,0,0-.429-.426H-23.423a.407.407,0,0,0-.429.426v1.722a.407.407,0,0,0,.429.425h4.274V-6.439a.408.408,0,0,0,.429.426Zm-29.732-.5-5.288-14.591a.555.555,0,0,0-.586-.387H-54.97a.531.531,0,0,0-.565.387L-60.823-6.516a.362.362,0,0,0,.332.5h1.912a.547.547,0,0,0,.566-.407l1.152-3.29h6.3l1.151,3.29a.547.547,0,0,0,.566.407h2.029a.355.355,0,0,0,.332-.5m-9.483-5.728L-53.7-18.63l2.244,6.386ZM-21.8-6.554-25.1-10.1l2.185-3.715c.195-.329.02-.542-.293-.542H-25.1a.662.662,0,0,0-.644.348l-1.229,2.13-2.186-2.342c1.484-.813,2.889-1.9,2.889-3.831,0-2.265-1.6-3.794-4.215-3.794A3.936,3.936,0,0,0-34.74-17.8a4.748,4.748,0,0,0,1.307,3.057c-1.834,1.007-3.044,2.206-3.044,4.451,0,2.922,2.245,4.625,5.093,4.625a5.461,5.461,0,0,0,4.683-2.3l1.483,1.626a.809.809,0,0,0,.722.329h2.478c.313,0,.469-.271.215-.541m-8.644-12.89a1.393,1.393,0,0,1,1.522,1.452c0,.852-.586,1.336-1.971,2.129a3.143,3.143,0,0,1-1.151-2.09,1.456,1.456,0,0,1,1.6-1.49M-31.326-8.1a2.3,2.3,0,0,1-2.381-2.284c0-1.355.781-2.031,1.991-2.709l3.161,3.367A3.157,3.157,0,0,1-31.326-8.1m-11.921,2.09a.408.408,0,0,1-.429-.426V-18.921h-4.273a.408.408,0,0,1-.429-.425v-1.722a.408.408,0,0,1,.429-.426h11.376a.408.408,0,0,1,.429.426v1.722a.408.408,0,0,1-.429.425h-4.273V-6.439a.409.409,0,0,1-.43.426Z" transform="translate(60.851 21.843)"/>
      </g>
      <g id="Group_195" data-name="Group 195" transform="translate(375.106 96.107)">
        <path id="Path_261" data-name="Path 261" d="M-11.2-1.036a19.413,19.413,0,0,0-9.982-2.729A19.494,19.494,0,0,0-31.3-.955c-.879.538-1.376.968-1.376,1.521,0,1.633,3.845,3.388,10.667,3.388,6.75,0,11.987-1.922,11.987-3.774,0-.441-.388-.75-1.176-1.217m2.9,2.15a.783.783,0,0,1,.122.446c0,2.15-6.632,5.954-17.192,5.954-7.757,0-9.209-2.855-9.209-4.671a3.125,3.125,0,0,1,.8-1.988c.031-.041.005-.056-.03-.025A19.494,19.494,0,0,0-36.55,3.66a2.455,2.455,0,0,0-.629,1.176c0,3.764,9.512,6.492,18.4,6.492,9.475,0,13.7-3.068,13.7-5.766,0-.964-.378-1.526-1.345-2.617A22.834,22.834,0,0,0-8.267,1.089c-.03-.025-.051-.005-.03.025M-38.816,7.286a19.09,19.09,0,0,0-1.4,4.012,1.277,1.277,0,0,0,.1.938c1.2,2.521,7.251,6.552,21.375,6.552,8.616,0,15.31-2.1,16.394-5.933A4.509,4.509,0,0,0-2.386,10.4,18.627,18.627,0,0,0-3.665,7.053c-.015-.03-.041-.025-.036.01.168,5.026-13.96,8.267-21.089,8.267-7.721,0-14.164-3.053-14.164-6.908A4.638,4.638,0,0,1-38.779,7.3c.01-.036-.02-.041-.036-.01m13.71,16.062c-9.987,0-14.7-4.615-15.55-7.764-.011-.046-.041-.036-.041.005a19.038,19.038,0,0,0,.291,3.337,3.872,3.872,0,0,0,.982,1.689c2.418,2.5,8.448,6.005,18.889,6.005,14.226,0,17.479-4.7,18.143-6.248a14.06,14.06,0,0,0,.721-4.783c0-.406-.01-.731-.026-1.05,0-.051-.03-.056-.041-.005-.711,3.783-12.866,8.814-23.369,8.814m5.246,8.515c4.8,0,10.078-1.3,13.234-3.869A10.47,10.47,0,0,0-4.2,25.107a18.322,18.322,0,0,0,1.176-2.419c.015-.04-.01-.06-.041-.014C-6,26.958-14.5,29.631-23.275,29.631c-6.2,0-12.876-1.968-15.489-5.725-.025-.036-.051-.02-.036.02,2.434,5.133,9.818,7.937,18.94,7.937m-13.29-.989a19.593,19.593,0,0,0,11.965,4.067,19.53,19.53,0,0,0,12.855-4.8c.041-.036.02-.061-.02-.036-1.539,1.02-5.926,3.246-12.835,3.246-6,0-9.8-1.329-11.939-2.516-.041-.02-.057.01-.026.036" transform="translate(40.697 3.765)" fill="#009edb"/>
      </g>
      <g id="Group_196" data-name="Group 196" transform="translate(22.279 0.686)">
        <path id="Path_262" data-name="Path 262" d="M-3.134-3.427a12.851,12.851,0,0,0,2.9-9.024A12.164,12.164,0,0,0-8.4-8.145,11.79,11.79,0,0,0-11.309.59C-8.249.8-5.1-1.014-3.134-3.427" transform="translate(11.387 12.451)" fill="#2b2e34"/>
      </g>
      <g id="Group_197" data-name="Group 197" transform="translate(0 14.45)">
        <path id="Path_263" data-name="Path 263" d="M-14.692-8.157h-38.34l.005,0h38.29v-.085a12.966,12.966,0,0,1-.941-6.9v-.085h0a11.689,11.689,0,0,1,3.745-7.149c.018-.013.039-.029.059-.046v-.007h0a16.8,16.8,0,0,1,1.931-1.628,12.493,12.493,0,0,0-10.236-5.552c-4-.343-8.147,2.579-10.384,2.513-2.165.067-5.434-2.571-8.885-2.4l-.035-.005c-.077,0-.7.035-.7.035A13.008,13.008,0,0,0-51.1-22.439v.013h-.014v-.013a20.649,20.649,0,0,0-2.166,7.214v.118a35.5,35.5,0,0,0,.241,6.95.438.438,0,0,1,.015.091l.005,0a35.312,35.312,0,0,0,1.757,6.959V-1.1h0a43.453,43.453,0,0,0,3.6,7.187V6.1h.012c2.344,3.43,5.1,7.287,8.742,7.121,3.515-.136,4.809-2.379,9.043-2.345,4.232-.034,5.4,2.238,9.11,2.255,3.78-.165,6.123-3.594,8.469-7.03A37.953,37.953,0,0,0-8.7-1.1h.009c.071-.214.178-.542.254-.781-2.486-.718-5.275-4.056-6.251-6.28" transform="translate(53.375 29.634)" fill="#2b2e34"/>
      </g>
    </g>
  </g>
</svg>
